<svg xmlns="http://www.w3.org/2000/svg" viewBox="0 0 48 48" xmlns:xlink="http://www.w3.org/1999/xlink" xml:space="preserve" width="100%" height="100%"><path xmlns="http://www.w3.org/2000/svg" d="M20.363 5.76C8.236 5.76.96 15.488.96 20.352s2.425 8.512 7.276 8.512 7.277 1.216 7.277 4.864c0 4.863 3.637 8.511 8.488 8.511 15.765 0 23.04-8.511 23.04-17.023C47.04 10.624 34.911 5.76 20.363 5.76m-3.032 4.864a3.034 3.034 0 0 1 3.032 3.04c0 1.68-1.358 3.04-3.032 3.04s-3.032-1.361-3.032-3.04a3.034 3.034 0 0 1 3.032-3.04m9.7 0a3.034 3.034 0 0 1 3.031 3.04 3.034 3.034 0 0 1-3.031 3.04A3.034 3.034 0 0 1 24 13.664a3.034 3.034 0 0 1 3.03-3.04m9.702 4.864a3.034 3.034 0 0 1 3.033 3.04 3.034 3.034 0 0 1-3.033 3.04 3.034 3.034 0 0 1-3.03-3.04 3.034 3.034 0 0 1 3.03-3.04M8.842 17.92a3.034 3.034 0 0 1 3.031 3.039c0 1.68-1.357 3.04-3.03 3.04s-3.032-1.361-3.032-3.04a3.034 3.034 0 0 1 3.032-3.039M24 30.08a3.64 3.64 0 0 1 3.637 3.649c0 2.014-1.628 3.647-3.637 3.647s-3.637-1.633-3.637-3.647A3.64 3.64 0 0 1 24 30.079"></path></svg>